<?xml version="1.0" standalone="no"?>
<!DOCTYPE svg PUBLIC "-//W3C//DTD SVG 20010904//EN"
 "http://www.w3.org/TR/2001/REC-SVG-20010904/DTD/svg10.dtd">
<svg version="1.0" xmlns="http://www.w3.org/2000/svg"
 width="114.000000pt" height="105.000000pt" viewBox="0 0 114.000000 105.000000"
 preserveAspectRatio="xMidYMid meet">

<g transform="translate(0.000000,105.000000) scale(0.100000,-0.100000)"
fill="#000000" stroke="none">
<path d="M345 816 c-121 -51 -229 -97 -240 -103 -22 -13 -52 2 262 -128 l201
-84 178 74 c98 41 183 75 191 75 10 0 13 -32 13 -148 l0 -148 -35 -73 c-19
-40 -35 -77 -35 -82 0 -5 36 -9 80 -9 48 0 80 4 80 10 0 6 -18 46 -40 90 -40
79 -40 80 -40 199 0 161 4 178 48 197 21 8 32 18 26 23 -7 7 -362 158 -449
191 -14 5 -82 -18 -240 -84z m433 -13 c116 -48 212 -93 212 -99 0 -6 -95 -50
-212 -98 l-211 -87 -214 88 c-117 48 -213 92 -213 98 0 6 57 34 128 63 70 28
163 67 207 86 44 19 82 35 85 35 3 1 101 -38 218 -86z m210 -528 c33 -69 31
-75 -33 -75 -31 0 -55 4 -55 10 0 17 49 110 58 110 4 0 18 -20 30 -45z"/>
<path d="M176 510 c14 -14 371 -160 392 -160 21 0 253 97 267 112 15 15 -22 3
-153 -53 l-114 -48 -190 79 c-183 77 -223 91 -202 70z"/>
</g>
</svg>
