<svg width="74" height="26" viewBox="0 0 74 26" fill="none" xmlns="http://www.w3.org/2000/svg">
<g filter="url(#filter0_d_77_14)">
<path d="M15.0391 13.0806C15.0391 12.564 14.9492 12.1035 14.7695 11.6992C14.5898 11.2949 14.3016 10.9318 13.9048 10.6099C13.508 10.2879 12.9876 9.99219 12.3438 9.72266C11.7074 9.45312 10.925 9.19108 9.99658 8.93652C9.16553 8.71191 8.41683 8.47233 7.75049 8.21777C7.08415 7.95573 6.51514 7.65625 6.04346 7.31934C5.57926 6.98242 5.22363 6.58187 4.97656 6.11768C4.72949 5.646 4.60596 5.08073 4.60596 4.42188C4.60596 3.80046 4.74072 3.24268 5.01025 2.74854C5.28727 2.25439 5.66911 1.83512 6.15576 1.49072C6.6499 1.14632 7.2264 0.884277 7.88525 0.70459C8.54411 0.517415 9.25911 0.423828 10.0303 0.423828C11.0934 0.423828 12.033 0.625977 12.8491 1.03027C13.6652 1.43457 14.3053 1.99984 14.7695 2.72607C15.2412 3.44482 15.4771 4.28711 15.4771 5.25293H14.8706C14.8706 4.44434 14.6685 3.72184 14.2642 3.08545C13.8599 2.44906 13.2946 1.94743 12.5684 1.58057C11.8496 1.2137 11.0036 1.03027 10.0303 1.03027C9.00456 1.03027 8.13232 1.1875 7.41357 1.50195C6.69482 1.81641 6.14827 2.23193 5.77393 2.74854C5.39958 3.25765 5.2124 3.80794 5.2124 4.39941C5.2124 4.83366 5.28727 5.23796 5.43701 5.6123C5.59424 5.98665 5.85628 6.3348 6.22314 6.65674C6.59001 6.97119 7.09538 7.27067 7.73926 7.55518C8.38314 7.83219 9.19173 8.09798 10.165 8.35254C10.9736 8.56217 11.7111 8.79801 12.3774 9.06006C13.0513 9.3221 13.6315 9.63281 14.1182 9.99219C14.6123 10.3516 14.9904 10.7821 15.2524 11.2837C15.522 11.7778 15.6567 12.3693 15.6567 13.0581C15.6567 13.7244 15.5107 14.3159 15.2188 14.8325C14.9342 15.3491 14.5374 15.7871 14.0283 16.1465C13.5192 16.4984 12.9277 16.7679 12.2539 16.9551C11.5876 17.1348 10.8726 17.2246 10.1089 17.2246C9.4126 17.2246 8.70882 17.1423 7.99756 16.9775C7.2863 16.8128 6.63493 16.547 6.04346 16.1802C5.45199 15.8058 4.97656 15.3079 4.61719 14.6865C4.25781 14.0651 4.07812 13.2977 4.07812 12.3843H4.68457C4.68457 13.2004 4.85303 13.8817 5.18994 14.4282C5.52686 14.9748 5.96484 15.409 6.50391 15.731C7.05046 16.0454 7.63818 16.2738 8.26709 16.416C8.90348 16.5508 9.51742 16.6182 10.1089 16.6182C11.0672 16.6182 11.917 16.4684 12.6582 16.1689C13.3994 15.8695 13.9797 15.4539 14.3989 14.9224C14.8257 14.3908 15.0391 13.7769 15.0391 13.0806ZM19.6909 10.6748L21.7661 9.03125C22.1203 8.75456 22.4302 8.43636 22.6958 8.07666C22.967 7.71696 23.1025 7.33512 23.1025 6.93115C23.1025 6.47184 22.9476 6.06787 22.6377 5.71924C22.3278 5.36507 21.874 5.18799 21.2764 5.18799C20.8281 5.18799 20.4491 5.28483 20.1392 5.47852C19.8293 5.66667 19.5941 5.92122 19.4336 6.24219C19.2786 6.56315 19.2012 6.91455 19.2012 7.29639C19.2012 7.57861 19.2482 7.87467 19.3423 8.18457C19.4364 8.48893 19.5775 8.80436 19.7656 9.13086C19.9593 9.45736 20.2056 9.79492 20.5044 10.1436L26.5391 17H25.9829L20.6621 10.9819C20.2581 10.5171 19.9123 10.0854 19.6245 9.68701C19.3368 9.28304 19.1182 8.89014 18.9688 8.5083C18.8193 8.12093 18.7446 7.72249 18.7446 7.31299C18.7446 6.80941 18.847 6.36393 19.0518 5.97656C19.2565 5.58919 19.547 5.2876 19.9233 5.07178C20.3052 4.85042 20.7562 4.73975 21.2764 4.73975C21.7689 4.73975 22.1839 4.83936 22.5215 5.03857C22.8646 5.23779 23.1247 5.50342 23.3018 5.83545C23.4788 6.16195 23.5674 6.52718 23.5674 6.93115C23.5674 7.26872 23.4761 7.59245 23.2935 7.90234C23.1164 8.21224 22.9033 8.49447 22.6543 8.74902C22.4108 8.99805 22.1839 9.20833 21.9736 9.37988L19.9482 10.9985C19.4004 11.4744 18.9881 11.9006 18.7114 12.2769C18.4347 12.6476 18.2493 12.9797 18.1553 13.2729C18.0612 13.5662 18.0142 13.8346 18.0142 14.0781C18.0142 14.5319 18.1276 14.9608 18.3545 15.3647C18.5814 15.7687 18.9272 16.0952 19.3921 16.3442C19.8625 16.5933 20.4546 16.7178 21.1685 16.7178C21.744 16.7178 22.2974 16.5988 22.8286 16.3608C23.3599 16.1229 23.833 15.7853 24.248 15.3481C24.6686 14.911 25.0007 14.388 25.2441 13.7793C25.4876 13.1706 25.6094 12.4954 25.6094 11.7539H26.0659C26.0659 12.2575 26.0161 12.7251 25.9165 13.1567C25.8169 13.5828 25.6758 13.9785 25.4932 14.3438C25.3161 14.7035 25.103 15.0382 24.854 15.3481C24.8153 15.4035 24.7931 15.4312 24.7876 15.4312C24.7876 15.4312 24.7655 15.4533 24.7212 15.4976C24.2563 15.979 23.7306 16.3774 23.144 16.6929C22.5575 17.0083 21.8989 17.166 21.1685 17.166C20.4269 17.166 19.785 17.0415 19.2427 16.7925C18.7059 16.5379 18.2909 16.181 17.9976 15.7217C17.7098 15.2568 17.5659 14.709 17.5659 14.0781C17.5659 13.6188 17.6628 13.1927 17.8564 12.7998C18.0501 12.4014 18.3075 12.0278 18.6284 11.6792C18.9549 11.3306 19.3091 10.9958 19.6909 10.6748ZM33.9111 1.16504L28.0039 17H27.3413L33.4619 0.648438H34.0459L33.9111 1.16504ZM39.6611 17L33.7539 1.16504L33.6304 0.648438H34.2031L40.3237 17H39.6611ZM37.9316 11.5083V12.1147H29.7446V11.5083H37.9316ZM54.3506 9.58789V15.248C54.1784 15.4951 53.8527 15.7721 53.3735 16.0791C52.9019 16.3861 52.2804 16.6556 51.5093 16.8877C50.7456 17.1123 49.8322 17.2246 48.769 17.2246C47.8407 17.2246 46.9909 17.0524 46.2197 16.708C45.4486 16.3636 44.7822 15.8732 44.2207 15.2368C43.6592 14.5929 43.2249 13.833 42.918 12.957C42.6185 12.0736 42.4688 11.1003 42.4688 10.0371V7.36426C42.4688 6.33105 42.6147 5.39144 42.9067 4.54541C43.2062 3.69938 43.6255 2.9694 44.1646 2.35547C44.7111 1.73405 45.3587 1.25863 46.1074 0.929199C46.8561 0.592285 47.6797 0.423828 48.5781 0.423828C49.7611 0.423828 50.7606 0.62972 51.5767 1.0415C52.3927 1.45329 53.0291 2.01107 53.4858 2.71484C53.95 3.41113 54.2308 4.19727 54.3281 5.07324H53.7217C53.6094 4.36198 53.366 3.69938 52.9917 3.08545C52.6174 2.47152 52.0708 1.97738 51.3521 1.60303C50.6408 1.22119 49.7161 1.03027 48.5781 1.03027C47.7471 1.03027 46.9909 1.1875 46.3096 1.50195C45.6357 1.80892 45.0555 2.24316 44.5688 2.80469C44.0897 3.36621 43.7191 4.03255 43.457 4.80371C43.2025 5.57487 43.0752 6.4209 43.0752 7.3418V10.0371C43.0752 11.0029 43.2062 11.8864 43.4683 12.6875C43.7378 13.4886 44.1234 14.1849 44.625 14.7764C45.1266 15.3604 45.7256 15.8133 46.4219 16.1353C47.1257 16.4572 47.908 16.6182 48.769 16.6182C49.66 16.6182 50.4461 16.5283 51.1274 16.3486C51.8162 16.1615 52.3815 15.9406 52.8232 15.686C53.2725 15.424 53.5794 15.1844 53.7441 14.9673V10.2056H48.7466V9.58789H54.3506ZM68.4111 13.0806C68.4111 12.564 68.3213 12.1035 68.1416 11.6992C67.9619 11.2949 67.6737 10.9318 67.2769 10.6099C66.88 10.2879 66.3597 9.99219 65.7158 9.72266C65.0794 9.45312 64.297 9.19108 63.3687 8.93652C62.5376 8.71191 61.7889 8.47233 61.1226 8.21777C60.4562 7.95573 59.8872 7.65625 59.4155 7.31934C58.9513 6.98242 58.5957 6.58187 58.3486 6.11768C58.1016 5.646 57.978 5.08073 57.978 4.42188C57.978 3.80046 58.1128 3.24268 58.3823 2.74854C58.6593 2.25439 59.0412 1.83512 59.5278 1.49072C60.022 1.14632 60.5985 0.884277 61.2573 0.70459C61.9162 0.517415 62.6312 0.423828 63.4023 0.423828C64.4655 0.423828 65.4051 0.625977 66.2212 1.03027C67.0373 1.43457 67.6774 1.99984 68.1416 2.72607C68.6133 3.44482 68.8491 4.28711 68.8491 5.25293H68.2427C68.2427 4.44434 68.0405 3.72184 67.6362 3.08545C67.2319 2.44906 66.6667 1.94743 65.9404 1.58057C65.2217 1.2137 64.3757 1.03027 63.4023 1.03027C62.3766 1.03027 61.5044 1.1875 60.7856 1.50195C60.0669 1.81641 59.5203 2.23193 59.146 2.74854C58.7716 3.25765 58.5845 3.80794 58.5845 4.39941C58.5845 4.83366 58.6593 5.23796 58.8091 5.6123C58.9663 5.98665 59.2284 6.3348 59.5952 6.65674C59.9621 6.97119 60.4674 7.27067 61.1113 7.55518C61.7552 7.83219 62.5638 8.09798 63.5371 8.35254C64.3457 8.56217 65.0832 8.79801 65.7495 9.06006C66.4233 9.3221 67.0036 9.63281 67.4902 9.99219C67.9844 10.3516 68.3625 10.7821 68.6245 11.2837C68.894 11.7778 69.0288 12.3693 69.0288 13.0581C69.0288 13.7244 68.8828 14.3159 68.5908 14.8325C68.3063 15.3491 67.9095 15.7871 67.4004 16.1465C66.8913 16.4984 66.2998 16.7679 65.626 16.9551C64.9596 17.1348 64.2446 17.2246 63.481 17.2246C62.7847 17.2246 62.0809 17.1423 61.3696 16.9775C60.6584 16.8128 60.007 16.547 59.4155 16.1802C58.8241 15.8058 58.3486 15.3079 57.9893 14.6865C57.6299 14.0651 57.4502 13.2977 57.4502 12.3843H58.0566C58.0566 13.2004 58.2251 13.8817 58.562 14.4282C58.8989 14.9748 59.3369 15.409 59.876 15.731C60.4225 16.0454 61.0103 16.2738 61.6392 16.416C62.2756 16.5508 62.8895 16.6182 63.481 16.6182C64.4393 16.6182 65.2891 16.4684 66.0303 16.1689C66.7715 15.8695 67.3517 15.4539 67.771 14.9224C68.1978 14.3908 68.4111 13.7769 68.4111 13.0806Z" fill="black"/>
</g>
<defs>
<filter id="filter0_d_77_14" x="0.078125" y="0.423828" width="72.9507" height="24.8008" filterUnits="userSpaceOnUse" color-interpolation-filters="sRGB">
<feFlood flood-opacity="0" result="BackgroundImageFix"/>
<feColorMatrix in="SourceAlpha" type="matrix" values="0 0 0 0 0 0 0 0 0 0 0 0 0 0 0 0 0 0 127 0" result="hardAlpha"/>
<feOffset dy="4"/>
<feGaussianBlur stdDeviation="2"/>
<feComposite in2="hardAlpha" operator="out"/>
<feColorMatrix type="matrix" values="0 0 0 0 0 0 0 0 0 0 0 0 0 0 0 0 0 0 0.25 0"/>
<feBlend mode="normal" in2="BackgroundImageFix" result="effect1_dropShadow_77_14"/>
<feBlend mode="normal" in="SourceGraphic" in2="effect1_dropShadow_77_14" result="shape"/>
</filter>
</defs>
</svg>
