<svg width="340" height="108" viewBox="0 0 340 108" fill="none" xmlns="http://www.w3.org/2000/svg">
<path d="M20.6348 29.4795C20.6348 28.3564 20.472 27.3555 20.1465 26.4766C19.821 25.5977 19.3001 24.8083 18.584 24.1084C17.8678 23.3923 16.9238 22.7412 15.752 22.1553C14.5801 21.5531 13.1478 20.9753 11.4551 20.4219C9.92513 19.9336 8.53353 19.4128 7.28027 18.8594C6.04329 18.306 4.98535 17.6631 4.10645 16.9307C3.24382 16.1982 2.5765 15.3275 2.10449 14.3184C1.63249 13.293 1.39648 12.0723 1.39648 10.6562C1.39648 9.28906 1.64876 8.06836 2.15332 6.99414C2.65788 5.91992 3.35775 5.00846 4.25293 4.25977C5.16439 3.51107 6.23047 2.94141 7.45117 2.55078C8.68815 2.16016 10.0228 1.96484 11.4551 1.96484C13.4245 1.96484 15.1579 2.32292 16.6553 3.03906C18.1689 3.75521 19.349 4.82129 20.1953 6.2373C21.0579 7.65332 21.4893 9.41927 21.4893 11.5352H20.2441C20.2441 9.76107 19.8779 8.25553 19.1455 7.01855C18.4131 5.7653 17.3877 4.81315 16.0693 4.16211C14.751 3.51107 13.2129 3.18555 11.4551 3.18555C9.56706 3.18555 7.96387 3.53548 6.64551 4.23535C5.34342 4.91895 4.35059 5.82227 3.66699 6.94531C2.99967 8.05208 2.66602 9.24837 2.66602 10.5342C2.66602 11.7061 2.86133 12.7314 3.25195 13.6104C3.65885 14.4893 4.24479 15.2624 5.00977 15.9297C5.79102 16.597 6.7513 17.1992 7.89062 17.7363C9.02995 18.2734 10.3483 18.7861 11.8457 19.2744C13.5872 19.7627 15.0928 20.3324 16.3623 20.9834C17.6318 21.6182 18.6816 22.3506 19.5117 23.1807C20.3418 24.0107 20.9603 24.9466 21.3672 25.9883C21.7741 27.0137 21.9775 28.1611 21.9775 29.4307C21.9775 30.8955 21.709 32.1895 21.1719 33.3125C20.651 34.4355 19.9186 35.3796 18.9746 36.1445C18.0306 36.9095 16.932 37.4954 15.6787 37.9023C14.4417 38.293 13.1152 38.4883 11.6992 38.4883C10.4134 38.4883 9.11133 38.3174 7.79297 37.9756C6.49089 37.6175 5.28646 37.0316 4.17969 36.2178C3.08919 35.404 2.21029 34.3216 1.54297 32.9707C0.891927 31.6198 0.566406 29.9434 0.566406 27.9414H1.86035C1.86035 29.748 2.16146 31.2536 2.76367 32.458C3.38216 33.6462 4.17969 34.5902 5.15625 35.29C6.14909 35.9899 7.21517 36.4945 8.35449 36.8037C9.51009 37.0967 10.625 37.2432 11.6992 37.2432C13.4408 37.2432 14.9788 36.9176 16.3135 36.2666C17.6644 35.5993 18.7223 34.6878 19.4873 33.5322C20.2523 32.3604 20.6348 31.0094 20.6348 29.4795ZM35.7715 11.584V12.8779H25.3223V11.584H35.7715ZM29.4482 4.45508H30.7666V31.6768C30.7666 33.2393 30.9131 34.4193 31.2061 35.2168C31.5153 36.0143 31.9222 36.5514 32.4268 36.8281C32.9313 37.1048 33.4684 37.2432 34.0381 37.2432C34.4938 37.2432 34.8844 37.2269 35.21 37.1943C35.5355 37.1455 35.8854 37.0885 36.2598 37.0234L36.4551 38.2197C36.1621 38.3337 35.7715 38.4069 35.2832 38.4395C34.7949 38.472 34.388 38.4883 34.0625 38.4883C33.1185 38.4883 32.2965 38.293 31.5967 37.9023C30.9131 37.4954 30.3841 36.7956 30.0098 35.8027C29.6354 34.8099 29.4482 33.4346 29.4482 31.6768V4.45508ZM40.8496 26.1836V23.3516C40.8496 21.431 41.0612 19.7139 41.4844 18.2002C41.9076 16.6865 42.5179 15.4007 43.3154 14.3428C44.113 13.2848 45.0814 12.4792 46.2207 11.9258C47.3763 11.3724 48.6784 11.0957 50.127 11.0957C51.5918 11.0957 52.8939 11.3724 54.0332 11.9258C55.1725 12.4792 56.1328 13.2848 56.9141 14.3428C57.7116 15.4007 58.3138 16.6865 58.7207 18.2002C59.1439 19.7139 59.3555 21.431 59.3555 23.3516V26.1836C59.3555 28.1042 59.1439 29.8294 58.7207 31.3594C58.3138 32.8893 57.7116 34.1914 56.9141 35.2656C56.1328 36.3236 55.1725 37.1374 54.0332 37.707C52.8939 38.2604 51.5918 38.5371 50.127 38.5371C48.6784 38.5371 47.3763 38.2604 46.2207 37.707C45.0814 37.1374 44.113 36.3236 43.3154 35.2656C42.5179 34.1914 41.9076 32.8893 41.4844 31.3594C41.0612 29.8294 40.8496 28.1042 40.8496 26.1836ZM42.1191 23.3516V26.1836C42.1191 27.7461 42.2819 29.2028 42.6074 30.5537C42.9329 31.9046 43.4212 33.0846 44.0723 34.0938C44.7396 35.0866 45.5778 35.8678 46.5869 36.4375C47.596 36.9909 48.776 37.2676 50.127 37.2676C51.4779 37.2676 52.6497 36.9909 53.6426 36.4375C54.6517 35.8678 55.4818 35.0866 56.1328 34.0938C56.8001 33.0846 57.2965 31.9046 57.6221 30.5537C57.9476 29.2028 58.1104 27.7461 58.1104 26.1836V23.3516C58.1104 21.8216 57.9476 20.3975 57.6221 19.0791C57.2965 17.7445 56.8001 16.5726 56.1328 15.5635C55.4655 14.5544 54.6354 13.765 53.6426 13.1953C52.6497 12.6257 51.4779 12.3408 50.127 12.3408C48.776 12.3408 47.596 12.6257 46.5869 13.1953C45.5778 13.765 44.7396 14.5544 44.0723 15.5635C43.4212 16.5726 42.9329 17.7445 42.6074 19.0791C42.2819 20.3975 42.1191 21.8216 42.1191 23.3516ZM67.5098 16.1982V38H66.2158V11.584H67.5098V16.1982ZM76.2988 11.3154L76.1279 12.4629C75.9163 12.3978 75.6885 12.3571 75.4443 12.3408C75.2002 12.3083 74.9398 12.292 74.6631 12.292C73.4424 12.292 72.3682 12.6012 71.4404 13.2197C70.5127 13.8219 69.7396 14.6602 69.1211 15.7344C68.5026 16.7923 68.0387 18.0212 67.7295 19.4209C67.4202 20.8206 67.2656 22.3099 67.2656 23.8887L66.5088 23.9375C66.5088 22.082 66.6715 20.373 66.9971 18.8105C67.3389 17.248 67.8516 15.889 68.5352 14.7334C69.2188 13.5778 70.0732 12.6826 71.0986 12.0479C72.124 11.4131 73.3285 11.0957 74.7119 11.0957C75.0374 11.0957 75.3304 11.112 75.5908 11.1445C75.8675 11.1771 76.1035 11.234 76.2988 11.3154ZM89.0186 38.5371C87.6351 38.5371 86.3411 38.2848 85.1367 37.7803C83.9486 37.2757 82.9069 36.5189 82.0117 35.5098C81.1165 34.4844 80.4167 33.2067 79.9121 31.6768C79.4076 30.1305 79.1553 28.332 79.1553 26.2812V23.3027C79.1553 21.252 79.3994 19.4616 79.8877 17.9316C80.376 16.4017 81.0514 15.1322 81.9141 14.123C82.793 13.1139 83.8021 12.3571 84.9414 11.8525C86.0807 11.348 87.2933 11.0957 88.5791 11.0957C89.8486 11.0957 91.0042 11.2992 92.0459 11.7061C93.0876 12.113 93.9909 12.7477 94.7559 13.6104C95.5208 14.4567 96.1068 15.5635 96.5137 16.9307C96.9206 18.2979 97.124 19.9499 97.124 21.8867V23.8398H79.9854V22.5947H95.8545V21.8623C95.8545 19.7627 95.5534 18.0049 94.9512 16.5889C94.3652 15.1729 93.527 14.1149 92.4365 13.415C91.346 12.6989 90.0602 12.3408 88.5791 12.3408C87.3584 12.3408 86.2516 12.585 85.2588 13.0732C84.266 13.5452 83.4033 14.2451 82.6709 15.1729C81.9548 16.1006 81.4014 17.248 81.0107 18.6152C80.6201 19.9824 80.4248 21.5449 80.4248 23.3027V26.2812C80.4248 28.0879 80.6364 29.6829 81.0596 31.0664C81.499 32.4336 82.1094 33.5811 82.8906 34.5088C83.6719 35.4202 84.5833 36.112 85.625 36.584C86.6829 37.0397 87.8223 37.2676 89.043 37.2676C90.3125 37.2676 91.5007 37.0804 92.6074 36.7061C93.7142 36.3317 94.7152 35.6237 95.6104 34.582L96.3184 35.3389C95.8301 35.9574 95.2441 36.5107 94.5605 36.999C93.877 37.4873 93.0794 37.8617 92.168 38.1221C91.2565 38.3988 90.2067 38.5371 89.0186 38.5371ZM128.643 33.0195V18.6885C128.643 17.2074 128.382 16.0029 127.861 15.0752C127.34 14.1475 126.576 13.4639 125.566 13.0244C124.574 12.5687 123.353 12.3408 121.904 12.3408C120.57 12.3408 119.373 12.6094 118.315 13.1465C117.257 13.6673 116.419 14.416 115.801 15.3926C115.182 16.3691 114.873 17.5247 114.873 18.8594L113.628 18.7861C113.628 17.6956 113.831 16.6865 114.238 15.7588C114.645 14.8148 115.215 14.001 115.947 13.3174C116.696 12.6175 117.575 12.0723 118.584 11.6816C119.609 11.291 120.732 11.0957 121.953 11.0957C123.499 11.0957 124.867 11.348 126.055 11.8525C127.243 12.3571 128.179 13.1709 128.862 14.2939C129.546 15.4007 129.888 16.8818 129.888 18.7373V32.7021C129.888 33.6624 129.937 34.6146 130.034 35.5586C130.148 36.5026 130.295 37.2432 130.474 37.7803V38H129.058C128.911 37.3652 128.805 36.5921 128.74 35.6807C128.675 34.7692 128.643 33.8822 128.643 33.0195ZM129.131 23.2783L129.18 24.5723H122.881C121.383 24.5723 120.09 24.7432 118.999 25.085C117.925 25.4268 117.038 25.9069 116.338 26.5254C115.638 27.1276 115.117 27.8519 114.775 28.6982C114.45 29.5283 114.287 30.4398 114.287 31.4326C114.287 32.7184 114.523 33.7926 114.995 34.6553C115.483 35.5179 116.151 36.1689 116.997 36.6084C117.86 37.0479 118.844 37.2676 119.951 37.2676C121.514 37.2676 122.897 36.9827 124.102 36.4131C125.306 35.8271 126.315 35.0133 127.129 33.9717C127.959 32.9137 128.586 31.6686 129.009 30.2363L129.57 31.4326C129.31 32.279 128.919 33.1253 128.398 33.9717C127.878 34.8018 127.218 35.5667 126.421 36.2666C125.64 36.9502 124.712 37.5036 123.638 37.9268C122.563 38.3337 121.335 38.5371 119.951 38.5371C118.568 38.5371 117.355 38.2686 116.313 37.7314C115.272 37.1943 114.466 36.3968 113.896 35.3389C113.327 34.2646 113.042 32.9219 113.042 31.3105C113.042 30.1387 113.245 29.0645 113.652 28.0879C114.076 27.1113 114.694 26.265 115.508 25.5488C116.322 24.8164 117.331 24.2549 118.535 23.8643C119.756 23.4736 121.164 23.2783 122.759 23.2783H129.131ZM139.287 17.2236V38H137.993V11.584H139.263L139.287 17.2236ZM139.067 22.4482L138.384 21.0322C138.514 19.7464 138.815 18.5094 139.287 17.3213C139.759 16.1331 140.378 15.0752 141.143 14.1475C141.908 13.2035 142.795 12.4629 143.804 11.9258C144.813 11.3724 145.928 11.0957 147.148 11.0957C148.288 11.0957 149.297 11.2829 150.176 11.6572C151.071 12.0153 151.82 12.5931 152.422 13.3906C153.024 14.1719 153.48 15.1891 153.789 16.4424C154.115 17.6794 154.277 19.1686 154.277 20.9102V38H153.008V20.8857C153.008 18.6234 152.747 16.8737 152.227 15.6367C151.722 14.3997 151.022 13.5371 150.127 13.0488C149.232 12.5605 148.19 12.3164 147.002 12.3164C145.618 12.3164 144.43 12.6908 143.438 13.4395C142.461 14.1882 141.655 15.124 141.021 16.2471C140.386 17.3538 139.906 18.4769 139.58 19.6162C139.271 20.7393 139.1 21.6833 139.067 22.4482ZM177.153 32.873V0.5H178.423V38H177.153V32.873ZM161.138 25.9395V23.5957C161.138 21.3496 161.325 19.4372 161.699 17.8584C162.09 16.2796 162.651 14.9938 163.384 14.001C164.116 12.9919 165.003 12.2594 166.045 11.8037C167.103 11.3317 168.299 11.0957 169.634 11.0957C170.854 11.0957 171.945 11.291 172.905 11.6816C173.882 12.0723 174.72 12.6175 175.42 13.3174C176.136 14.001 176.73 14.8066 177.202 15.7344C177.674 16.6621 178.032 17.6631 178.276 18.7373V31.6768C178.097 32.5557 177.78 33.4102 177.324 34.2402C176.868 35.054 176.274 35.7865 175.542 36.4375C174.826 37.0885 173.971 37.6012 172.979 37.9756C171.986 38.3499 170.854 38.5371 169.585 38.5371C168.267 38.5371 167.078 38.293 166.021 37.8047C164.979 37.3001 164.092 36.5352 163.359 35.5098C162.643 34.4681 162.09 33.1579 161.699 31.5791C161.325 29.984 161.138 28.1042 161.138 25.9395ZM162.48 23.5957V25.9395C162.48 27.86 162.619 29.5365 162.896 30.9688C163.188 32.3848 163.628 33.5648 164.214 34.5088C164.8 35.4365 165.54 36.1364 166.436 36.6084C167.331 37.0641 168.389 37.292 169.609 37.292C171.172 37.292 172.498 37.0072 173.589 36.4375C174.679 35.8678 175.55 35.111 176.201 34.167C176.852 33.2067 177.3 32.1488 177.544 30.9932V19.7383C177.397 19.0059 177.161 18.2165 176.836 17.3701C176.51 16.5238 176.047 15.7181 175.444 14.9531C174.858 14.1719 174.093 13.5371 173.149 13.0488C172.205 12.5605 171.042 12.3164 169.658 12.3164C168.438 12.3164 167.371 12.5524 166.46 13.0244C165.565 13.4801 164.816 14.1719 164.214 15.0996C163.628 16.0273 163.188 17.1992 162.896 18.6152C162.619 20.0312 162.48 21.6914 162.48 23.5957ZM206.865 3.50293L196.05 38H194.658L205.986 2.45312H207.158L206.865 3.50293ZM217.363 38L206.597 3.50293L206.353 2.45312H207.451L218.779 38H217.363ZM214.336 26.1348V27.3555H199.126V26.1348H214.336ZM225.225 17.2236V38H223.931V11.584H225.2L225.225 17.2236ZM225.005 22.4482L224.321 21.0322C224.451 19.7464 224.753 18.5094 225.225 17.3213C225.697 16.1331 226.315 15.0752 227.08 14.1475C227.845 13.2035 228.732 12.4629 229.741 11.9258C230.75 11.3724 231.865 11.0957 233.086 11.0957C234.225 11.0957 235.234 11.2829 236.113 11.6572C237.008 12.0153 237.757 12.5931 238.359 13.3906C238.962 14.1719 239.417 15.1891 239.727 16.4424C240.052 17.6794 240.215 19.1686 240.215 20.9102V38H238.945V20.8857C238.945 18.6234 238.685 16.8737 238.164 15.6367C237.66 14.3997 236.96 13.5371 236.064 13.0488C235.169 12.5605 234.128 12.3164 232.939 12.3164C231.556 12.3164 230.368 12.6908 229.375 13.4395C228.398 14.1882 227.593 15.124 226.958 16.2471C226.323 17.3538 225.843 18.4769 225.518 19.6162C225.208 20.7393 225.037 21.6833 225.005 22.4482ZM262.139 33.0195V18.6885C262.139 17.2074 261.878 16.0029 261.357 15.0752C260.837 14.1475 260.072 13.4639 259.062 13.0244C258.07 12.5687 256.849 12.3408 255.4 12.3408C254.066 12.3408 252.869 12.6094 251.812 13.1465C250.754 13.6673 249.915 14.416 249.297 15.3926C248.678 16.3691 248.369 17.5247 248.369 18.8594L247.124 18.7861C247.124 17.6956 247.327 16.6865 247.734 15.7588C248.141 14.8148 248.711 14.001 249.443 13.3174C250.192 12.6175 251.071 12.0723 252.08 11.6816C253.105 11.291 254.229 11.0957 255.449 11.0957C256.995 11.0957 258.363 11.348 259.551 11.8525C260.739 12.3571 261.675 13.1709 262.358 14.2939C263.042 15.4007 263.384 16.8818 263.384 18.7373V32.7021C263.384 33.6624 263.433 34.6146 263.53 35.5586C263.644 36.5026 263.791 37.2432 263.97 37.7803V38H262.554C262.407 37.3652 262.301 36.5921 262.236 35.6807C262.171 34.7692 262.139 33.8822 262.139 33.0195ZM262.627 23.2783L262.676 24.5723H256.377C254.88 24.5723 253.586 24.7432 252.495 25.085C251.421 25.4268 250.534 25.9069 249.834 26.5254C249.134 27.1276 248.613 27.8519 248.271 28.6982C247.946 29.5283 247.783 30.4398 247.783 31.4326C247.783 32.7184 248.019 33.7926 248.491 34.6553C248.979 35.5179 249.647 36.1689 250.493 36.6084C251.356 37.0479 252.34 37.2676 253.447 37.2676C255.01 37.2676 256.393 36.9827 257.598 36.4131C258.802 35.8271 259.811 35.0133 260.625 33.9717C261.455 32.9137 262.082 31.6686 262.505 30.2363L263.066 31.4326C262.806 32.279 262.415 33.1253 261.895 33.9717C261.374 34.8018 260.715 35.5667 259.917 36.2666C259.136 36.9502 258.208 37.5036 257.134 37.9268C256.06 38.3337 254.831 38.5371 253.447 38.5371C252.064 38.5371 250.851 38.2686 249.81 37.7314C248.768 37.1943 247.962 36.3968 247.393 35.3389C246.823 34.2646 246.538 32.9219 246.538 31.3105C246.538 30.1387 246.742 29.0645 247.148 28.0879C247.572 27.1113 248.19 26.265 249.004 25.5488C249.818 24.8164 250.827 24.2549 252.031 23.8643C253.252 23.4736 254.66 23.2783 256.255 23.2783H262.627ZM273.052 0.5V38H271.758V0.5H273.052ZM288.213 35.4854L295.903 11.584H297.295L287.358 42.3701C287.196 42.9235 286.984 43.5583 286.724 44.2744C286.463 44.9906 286.113 45.6823 285.674 46.3496C285.251 47.0169 284.697 47.5703 284.014 48.0098C283.33 48.4492 282.476 48.6689 281.45 48.6689C281.206 48.6689 280.905 48.6445 280.547 48.5957C280.189 48.5632 279.928 48.5143 279.766 48.4492L279.717 47.2529C279.912 47.3018 280.181 47.3506 280.522 47.3994C280.864 47.4482 281.092 47.4727 281.206 47.4727C282.134 47.4727 282.907 47.2448 283.525 46.7891C284.144 46.3333 284.657 45.7067 285.063 44.9092C285.487 44.1117 285.861 43.2083 286.187 42.1992L288.213 35.4854ZM279.985 11.584L288.311 36.5596L288.701 37.7803L287.7 38.5127L278.618 11.584H279.985ZM318.193 36.7549V38H301.03V36.7549H318.193ZM316.997 12.6826L301.47 38H300.688V36.9746L316.216 11.584H316.997V12.6826ZM316.387 11.584V12.8535H301.323V11.584H316.387ZM331.401 38.5371C330.018 38.5371 328.724 38.2848 327.52 37.7803C326.331 37.2757 325.29 36.5189 324.395 35.5098C323.499 34.4844 322.799 33.2067 322.295 31.6768C321.79 30.1305 321.538 28.332 321.538 26.2812V23.3027C321.538 21.252 321.782 19.4616 322.271 17.9316C322.759 16.4017 323.434 15.1322 324.297 14.123C325.176 13.1139 326.185 12.3571 327.324 11.8525C328.464 11.348 329.676 11.0957 330.962 11.0957C332.231 11.0957 333.387 11.2992 334.429 11.7061C335.47 12.113 336.374 12.7477 337.139 13.6104C337.904 14.4567 338.49 15.5635 338.896 16.9307C339.303 18.2979 339.507 19.9499 339.507 21.8867V23.8398H322.368V22.5947H338.237V21.8623C338.237 19.7627 337.936 18.0049 337.334 16.5889C336.748 15.1729 335.91 14.1149 334.819 13.415C333.729 12.6989 332.443 12.3408 330.962 12.3408C329.741 12.3408 328.634 12.585 327.642 13.0732C326.649 13.5452 325.786 14.2451 325.054 15.1729C324.338 16.1006 323.784 17.248 323.394 18.6152C323.003 19.9824 322.808 21.5449 322.808 23.3027V26.2812C322.808 28.0879 323.019 29.6829 323.442 31.0664C323.882 32.4336 324.492 33.5811 325.273 34.5088C326.055 35.4202 326.966 36.112 328.008 36.584C329.066 37.0397 330.205 37.2676 331.426 37.2676C332.695 37.2676 333.883 37.0804 334.99 36.7061C336.097 36.3317 337.098 35.6237 337.993 34.582L338.701 35.3389C338.213 35.9574 337.627 36.5107 336.943 36.999C336.26 37.4873 335.462 37.8617 334.551 38.1221C333.639 38.3988 332.59 38.5371 331.401 38.5371ZM54.9854 80.9355V93.2158C54.6761 93.639 54.0902 94.1924 53.2275 94.876C52.3649 95.5596 51.2256 96.1781 49.8096 96.7314C48.3936 97.2686 46.6927 97.5371 44.707 97.5371C42.9818 97.5371 41.4111 97.2279 39.9951 96.6094C38.5954 95.9909 37.391 95.0876 36.3818 93.8994C35.3727 92.7113 34.5915 91.2708 34.0381 89.5781C33.501 87.8691 33.2324 85.9323 33.2324 83.7676V74.1729C33.2324 72.0895 33.4928 70.234 34.0137 68.6064C34.5345 66.9626 35.2832 65.5791 36.2598 64.4561C37.2363 63.3167 38.4082 62.4541 39.7754 61.8682C41.1426 61.266 42.6644 60.9648 44.3408 60.9648C46.5218 60.9648 48.3691 61.3555 49.8828 62.1367C51.3965 62.918 52.5765 64.0573 53.4229 65.5547C54.2855 67.0521 54.8063 68.875 54.9854 71.0234H53.6914C53.4961 69.2168 53.0485 67.6543 52.3486 66.3359C51.665 65.0176 50.6722 64.0003 49.3701 63.2842C48.0843 62.5518 46.4079 62.1855 44.3408 62.1855C42.8109 62.1855 41.4355 62.4541 40.2148 62.9912C39.0104 63.5283 37.985 64.3177 37.1387 65.3594C36.2923 66.3848 35.6413 67.638 35.1855 69.1191C34.7461 70.584 34.5264 72.2523 34.5264 74.124V83.7676C34.5264 85.7207 34.7542 87.4704 35.21 89.0166C35.682 90.5465 36.3574 91.8568 37.2363 92.9473C38.1152 94.0378 39.1813 94.8678 40.4346 95.4375C41.6878 96.0072 43.1038 96.292 44.6826 96.292C46.3102 96.292 47.7425 96.0641 48.9795 95.6084C50.2327 95.1364 51.2581 94.6074 52.0557 94.0215C52.8532 93.4355 53.4066 92.9635 53.7158 92.6055V82.1807H44.6338V80.9355H54.9854ZM64.4824 75.1982V97H63.1885V70.584H64.4824V75.1982ZM73.2715 70.3154L73.1006 71.4629C72.889 71.3978 72.6611 71.3571 72.417 71.3408C72.1729 71.3083 71.9124 71.292 71.6357 71.292C70.415 71.292 69.3408 71.6012 68.4131 72.2197C67.4854 72.8219 66.7122 73.6602 66.0938 74.7344C65.4753 75.7923 65.0114 77.0212 64.7021 78.4209C64.3929 79.8206 64.2383 81.3099 64.2383 82.8887L63.4814 82.9375C63.4814 81.082 63.6442 79.373 63.9697 77.8105C64.3115 76.248 64.8242 74.889 65.5078 73.7334C66.1914 72.5778 67.0459 71.6826 68.0713 71.0479C69.0967 70.4131 70.3011 70.0957 71.6846 70.0957C72.0101 70.0957 72.3031 70.112 72.5635 70.1445C72.8402 70.1771 73.0762 70.234 73.2715 70.3154ZM91.3867 92.0195V77.6885C91.3867 76.2074 91.1263 75.0029 90.6055 74.0752C90.0846 73.1475 89.3197 72.4639 88.3105 72.0244C87.3177 71.5687 86.097 71.3408 84.6484 71.3408C83.3138 71.3408 82.1175 71.6094 81.0596 72.1465C80.0016 72.6673 79.1634 73.416 78.5449 74.3926C77.9264 75.3691 77.6172 76.5247 77.6172 77.8594L76.3721 77.7861C76.3721 76.6956 76.5755 75.6865 76.9824 74.7588C77.3893 73.8148 77.959 73.001 78.6914 72.3174C79.4401 71.6175 80.319 71.0723 81.3281 70.6816C82.3535 70.291 83.4766 70.0957 84.6973 70.0957C86.2435 70.0957 87.6107 70.348 88.7988 70.8525C89.987 71.3571 90.9229 72.1709 91.6064 73.2939C92.29 74.4007 92.6318 75.8818 92.6318 77.7373V91.7021C92.6318 92.6624 92.6807 93.6146 92.7783 94.5586C92.8923 95.5026 93.0387 96.2432 93.2178 96.7803V97H91.8018C91.6553 96.3652 91.5495 95.5921 91.4844 94.6807C91.4193 93.7692 91.3867 92.8822 91.3867 92.0195ZM91.875 82.2783L91.9238 83.5723H85.625C84.1276 83.5723 82.8337 83.7432 81.7432 84.085C80.6689 84.4268 79.7819 84.9069 79.082 85.5254C78.3822 86.1276 77.8613 86.8519 77.5195 87.6982C77.194 88.5283 77.0312 89.4398 77.0312 90.4326C77.0312 91.7184 77.2673 92.7926 77.7393 93.6553C78.2275 94.5179 78.8949 95.1689 79.7412 95.6084C80.6038 96.0479 81.5885 96.2676 82.6953 96.2676C84.2578 96.2676 85.6413 95.9827 86.8457 95.4131C88.0501 94.8271 89.0592 94.0133 89.873 92.9717C90.7031 91.9137 91.3298 90.6686 91.7529 89.2363L92.3145 90.4326C92.054 91.279 91.6634 92.1253 91.1426 92.9717C90.6217 93.8018 89.9626 94.5667 89.165 95.2666C88.3838 95.9502 87.4561 96.5036 86.3818 96.9268C85.3076 97.3337 84.0788 97.5371 82.6953 97.5371C81.3118 97.5371 80.0993 97.2686 79.0576 96.7314C78.016 96.1943 77.2103 95.3968 76.6406 94.3389C76.071 93.2646 75.7861 91.9219 75.7861 90.3105C75.7861 89.1387 75.9896 88.0645 76.3965 87.0879C76.8197 86.1113 77.4382 85.265 78.252 84.5488C79.0658 83.8164 80.0749 83.2549 81.2793 82.8643C82.5 82.4736 83.9079 82.2783 85.5029 82.2783H91.875ZM115.728 91.873V59.5H116.997V97H115.728V91.873ZM99.7119 84.9395V82.5957C99.7119 80.3496 99.8991 78.4372 100.273 76.8584C100.664 75.2796 101.226 73.9938 101.958 73.001C102.69 71.9919 103.577 71.2594 104.619 70.8037C105.677 70.3317 106.873 70.0957 108.208 70.0957C109.429 70.0957 110.519 70.291 111.479 70.6816C112.456 71.0723 113.294 71.6175 113.994 72.3174C114.71 73.001 115.304 73.8066 115.776 74.7344C116.248 75.6621 116.606 76.6631 116.851 77.7373V90.6768C116.672 91.5557 116.354 92.4102 115.898 93.2402C115.443 94.054 114.849 94.7865 114.116 95.4375C113.4 96.0885 112.546 96.6012 111.553 96.9756C110.56 97.3499 109.429 97.5371 108.159 97.5371C106.841 97.5371 105.653 97.293 104.595 96.8047C103.553 96.3001 102.666 95.5352 101.934 94.5098C101.217 93.4681 100.664 92.1579 100.273 90.5791C99.8991 88.984 99.7119 87.1042 99.7119 84.9395ZM101.055 82.5957V84.9395C101.055 86.86 101.193 88.5365 101.47 89.9688C101.763 91.3848 102.202 92.5648 102.788 93.5088C103.374 94.4365 104.115 95.1364 105.01 95.6084C105.905 96.0641 106.963 96.292 108.184 96.292C109.746 96.292 111.073 96.0072 112.163 95.4375C113.254 94.8678 114.124 94.111 114.775 93.167C115.426 92.2067 115.874 91.1488 116.118 89.9932V78.7383C115.972 78.0059 115.736 77.2165 115.41 76.3701C115.085 75.5238 114.621 74.7181 114.019 73.9531C113.433 73.1719 112.668 72.5371 111.724 72.0488C110.78 71.5605 109.616 71.3164 108.232 71.3164C107.012 71.3164 105.946 71.5524 105.034 72.0244C104.139 72.4801 103.39 73.1719 102.788 74.0996C102.202 75.0273 101.763 76.1992 101.47 77.6152C101.193 79.0312 101.055 80.6914 101.055 82.5957ZM133.11 97.5371C131.727 97.5371 130.433 97.2848 129.229 96.7803C128.04 96.2757 126.999 95.5189 126.104 94.5098C125.208 93.4844 124.508 92.2067 124.004 90.6768C123.499 89.1305 123.247 87.332 123.247 85.2812V82.3027C123.247 80.252 123.491 78.4616 123.979 76.9316C124.468 75.4017 125.143 74.1322 126.006 73.123C126.885 72.1139 127.894 71.3571 129.033 70.8525C130.173 70.348 131.385 70.0957 132.671 70.0957C133.94 70.0957 135.096 70.2992 136.138 70.7061C137.179 71.113 138.083 71.7477 138.848 72.6104C139.613 73.4567 140.199 74.5635 140.605 75.9307C141.012 77.2979 141.216 78.9499 141.216 80.8867V82.8398H124.077V81.5947H139.946V80.8623C139.946 78.7627 139.645 77.0049 139.043 75.5889C138.457 74.1729 137.619 73.1149 136.528 72.415C135.438 71.6989 134.152 71.3408 132.671 71.3408C131.45 71.3408 130.343 71.585 129.351 72.0732C128.358 72.5452 127.495 73.2451 126.763 74.1729C126.047 75.1006 125.493 76.248 125.103 77.6152C124.712 78.9824 124.517 80.5449 124.517 82.3027V85.2812C124.517 87.0879 124.728 88.6829 125.151 90.0664C125.591 91.4336 126.201 92.5811 126.982 93.5088C127.764 94.4202 128.675 95.112 129.717 95.584C130.775 96.0397 131.914 96.2676 133.135 96.2676C134.404 96.2676 135.592 96.0804 136.699 95.7061C137.806 95.3317 138.807 94.6237 139.702 93.582L140.41 94.3389C139.922 94.9574 139.336 95.5107 138.652 95.999C137.969 96.4873 137.171 96.8617 136.26 97.1221C135.348 97.3988 134.299 97.5371 133.11 97.5371ZM161.284 90.5303C161.284 89.6351 161.097 88.805 160.723 88.04C160.348 87.2588 159.673 86.5182 158.696 85.8184C157.736 85.1185 156.344 84.4349 154.521 83.7676C153.203 83.2793 152.048 82.7747 151.055 82.2539C150.078 81.7331 149.256 81.1797 148.589 80.5938C147.938 80.0078 147.45 79.373 147.124 78.6895C146.799 78.0059 146.636 77.2572 146.636 76.4434C146.636 75.5156 146.807 74.6693 147.148 73.9043C147.49 73.123 147.987 72.4476 148.638 71.8779C149.289 71.3083 150.078 70.8688 151.006 70.5596C151.934 70.2503 152.983 70.0957 154.155 70.0957C155.832 70.0957 157.264 70.3643 158.452 70.9014C159.657 71.4385 160.584 72.2197 161.235 73.2451C161.886 74.2705 162.212 75.5319 162.212 77.0293H160.918C160.918 75.7598 160.658 74.71 160.137 73.8799C159.616 73.0335 158.851 72.3988 157.842 71.9756C156.849 71.5524 155.62 71.3408 154.155 71.3408C152.674 71.3408 151.47 71.5931 150.542 72.0977C149.631 72.5859 148.955 73.2126 148.516 73.9775C148.092 74.7425 147.881 75.54 147.881 76.3701C147.881 77.0049 147.995 77.599 148.223 78.1523C148.467 78.7057 148.857 79.2428 149.395 79.7637C149.932 80.2682 150.656 80.7646 151.567 81.2529C152.479 81.7412 153.61 82.2295 154.961 82.7178C156.8 83.3851 158.273 84.1012 159.38 84.8662C160.503 85.6149 161.309 86.4531 161.797 87.3809C162.301 88.3086 162.554 89.3665 162.554 90.5547C162.554 91.5801 162.367 92.516 161.992 93.3623C161.634 94.2087 161.105 94.9411 160.405 95.5596C159.722 96.1781 158.892 96.6582 157.915 97C156.938 97.3255 155.848 97.4883 154.644 97.4883C152.821 97.4883 151.274 97.179 150.005 96.5605C148.752 95.9421 147.799 95.112 147.148 94.0703C146.514 93.0124 146.196 91.8486 146.196 90.5791H147.466C147.547 92.0928 147.954 93.2565 148.687 94.0703C149.435 94.8841 150.347 95.4538 151.421 95.7793C152.495 96.0885 153.569 96.2432 154.644 96.2432C156.043 96.2432 157.231 95.999 158.208 95.5107C159.201 95.0225 159.958 94.347 160.479 93.4844C161.016 92.6217 161.284 91.637 161.284 90.5303ZM199.346 88.4795C199.346 87.3564 199.183 86.3555 198.857 85.4766C198.532 84.5977 198.011 83.8083 197.295 83.1084C196.579 82.3923 195.635 81.7412 194.463 81.1553C193.291 80.5531 191.859 79.9753 190.166 79.4219C188.636 78.9336 187.244 78.4128 185.991 77.8594C184.754 77.306 183.696 76.6631 182.817 75.9307C181.955 75.1982 181.287 74.3275 180.815 73.3184C180.343 72.293 180.107 71.0723 180.107 69.6562C180.107 68.2891 180.36 67.0684 180.864 65.9941C181.369 64.9199 182.069 64.0085 182.964 63.2598C183.875 62.5111 184.941 61.9414 186.162 61.5508C187.399 61.1602 188.734 60.9648 190.166 60.9648C192.135 60.9648 193.869 61.3229 195.366 62.0391C196.88 62.7552 198.06 63.8213 198.906 65.2373C199.769 66.6533 200.2 68.4193 200.2 70.5352H198.955C198.955 68.7611 198.589 67.2555 197.856 66.0186C197.124 64.7653 196.099 63.8132 194.78 63.1621C193.462 62.5111 191.924 62.1855 190.166 62.1855C188.278 62.1855 186.675 62.5355 185.356 63.2354C184.054 63.9189 183.062 64.8223 182.378 65.9453C181.711 67.0521 181.377 68.2484 181.377 69.5342C181.377 70.7061 181.572 71.7314 181.963 72.6104C182.37 73.4893 182.956 74.2624 183.721 74.9297C184.502 75.597 185.462 76.1992 186.602 76.7363C187.741 77.2734 189.059 77.7861 190.557 78.2744C192.298 78.7627 193.804 79.3324 195.073 79.9834C196.343 80.6182 197.393 81.3506 198.223 82.1807C199.053 83.0107 199.671 83.9466 200.078 84.9883C200.485 86.0137 200.688 87.1611 200.688 88.4307C200.688 89.8955 200.42 91.1895 199.883 92.3125C199.362 93.4355 198.63 94.3796 197.686 95.1445C196.742 95.9095 195.643 96.4954 194.39 96.9023C193.153 97.293 191.826 97.4883 190.41 97.4883C189.124 97.4883 187.822 97.3174 186.504 96.9756C185.202 96.6175 183.997 96.0316 182.891 95.2178C181.8 94.404 180.921 93.3216 180.254 91.9707C179.603 90.6198 179.277 88.9434 179.277 86.9414H180.571C180.571 88.748 180.872 90.2536 181.475 91.458C182.093 92.6462 182.891 93.5902 183.867 94.29C184.86 94.9899 185.926 95.4945 187.065 95.8037C188.221 96.0967 189.336 96.2432 190.41 96.2432C192.152 96.2432 193.69 95.9176 195.024 95.2666C196.375 94.5993 197.433 93.6878 198.198 92.5322C198.963 91.3604 199.346 90.0094 199.346 88.4795ZM213.75 94.4854L221.44 70.584H222.832L212.896 101.37C212.733 101.924 212.521 102.558 212.261 103.274C212 103.991 211.65 104.682 211.211 105.35C210.788 106.017 210.234 106.57 209.551 107.01C208.867 107.449 208.013 107.669 206.987 107.669C206.743 107.669 206.442 107.645 206.084 107.596C205.726 107.563 205.465 107.514 205.303 107.449L205.254 106.253C205.449 106.302 205.718 106.351 206.06 106.399C206.401 106.448 206.629 106.473 206.743 106.473C207.671 106.473 208.444 106.245 209.062 105.789C209.681 105.333 210.194 104.707 210.601 103.909C211.024 103.112 211.398 102.208 211.724 101.199L213.75 94.4854ZM205.522 70.584L213.848 95.5596L214.238 96.7803L213.237 97.5127L204.155 70.584H205.522ZM241.655 90.5303C241.655 89.6351 241.468 88.805 241.094 88.04C240.719 87.2588 240.044 86.5182 239.067 85.8184C238.107 85.1185 236.715 84.4349 234.893 83.7676C233.574 83.2793 232.419 82.7747 231.426 82.2539C230.449 81.7331 229.627 81.1797 228.96 80.5938C228.309 80.0078 227.821 79.373 227.495 78.6895C227.17 78.0059 227.007 77.2572 227.007 76.4434C227.007 75.5156 227.178 74.6693 227.52 73.9043C227.861 73.123 228.358 72.4476 229.009 71.8779C229.66 71.3083 230.449 70.8688 231.377 70.5596C232.305 70.2503 233.354 70.0957 234.526 70.0957C236.203 70.0957 237.635 70.3643 238.823 70.9014C240.028 71.4385 240.955 72.2197 241.606 73.2451C242.257 74.2705 242.583 75.5319 242.583 77.0293H241.289C241.289 75.7598 241.029 74.71 240.508 73.8799C239.987 73.0335 239.222 72.3988 238.213 71.9756C237.22 71.5524 235.991 71.3408 234.526 71.3408C233.045 71.3408 231.841 71.5931 230.913 72.0977C230.002 72.5859 229.326 73.2126 228.887 73.9775C228.464 74.7425 228.252 75.54 228.252 76.3701C228.252 77.0049 228.366 77.599 228.594 78.1523C228.838 78.7057 229.229 79.2428 229.766 79.7637C230.303 80.2682 231.027 80.7646 231.938 81.2529C232.85 81.7412 233.981 82.2295 235.332 82.7178C237.171 83.3851 238.644 84.1012 239.751 84.8662C240.874 85.6149 241.68 86.4531 242.168 87.3809C242.673 88.3086 242.925 89.3665 242.925 90.5547C242.925 91.5801 242.738 92.516 242.363 93.3623C242.005 94.2087 241.476 94.9411 240.776 95.5596C240.093 96.1781 239.263 96.6582 238.286 97C237.31 97.3255 236.219 97.4883 235.015 97.4883C233.192 97.4883 231.646 97.179 230.376 96.5605C229.123 95.9421 228.171 95.112 227.52 94.0703C226.885 93.0124 226.567 91.8486 226.567 90.5791H227.837C227.918 92.0928 228.325 93.2565 229.058 94.0703C229.806 94.8841 230.718 95.4538 231.792 95.7793C232.866 96.0885 233.94 96.2432 235.015 96.2432C236.414 96.2432 237.603 95.999 238.579 95.5107C239.572 95.0225 240.329 94.347 240.85 93.4844C241.387 92.6217 241.655 91.637 241.655 90.5303ZM257.744 70.584V71.8779H247.295V70.584H257.744ZM251.421 63.4551H252.739V90.6768C252.739 92.2393 252.886 93.4193 253.179 94.2168C253.488 95.0143 253.895 95.5514 254.399 95.8281C254.904 96.1048 255.441 96.2432 256.011 96.2432C256.466 96.2432 256.857 96.2269 257.183 96.1943C257.508 96.1455 257.858 96.0885 258.232 96.0234L258.428 97.2197C258.135 97.3337 257.744 97.4069 257.256 97.4395C256.768 97.472 256.361 97.4883 256.035 97.4883C255.091 97.4883 254.269 97.293 253.569 96.9023C252.886 96.4954 252.357 95.7956 251.982 94.8027C251.608 93.8099 251.421 92.4346 251.421 90.6768V63.4551ZM272.612 97.5371C271.229 97.5371 269.935 97.2848 268.73 96.7803C267.542 96.2757 266.501 95.5189 265.605 94.5098C264.71 93.4844 264.01 92.2067 263.506 90.6768C263.001 89.1305 262.749 87.332 262.749 85.2812V82.3027C262.749 80.252 262.993 78.4616 263.481 76.9316C263.97 75.4017 264.645 74.1322 265.508 73.123C266.387 72.1139 267.396 71.3571 268.535 70.8525C269.674 70.348 270.887 70.0957 272.173 70.0957C273.442 70.0957 274.598 70.2992 275.64 70.7061C276.681 71.113 277.585 71.7477 278.35 72.6104C279.115 73.4567 279.701 74.5635 280.107 75.9307C280.514 77.2979 280.718 78.9499 280.718 80.8867V82.8398H263.579V81.5947H279.448V80.8623C279.448 78.7627 279.147 77.0049 278.545 75.5889C277.959 74.1729 277.121 73.1149 276.03 72.415C274.94 71.6989 273.654 71.3408 272.173 71.3408C270.952 71.3408 269.845 71.585 268.853 72.0732C267.86 72.5452 266.997 73.2451 266.265 74.1729C265.549 75.1006 264.995 76.248 264.604 77.6152C264.214 78.9824 264.019 80.5449 264.019 82.3027V85.2812C264.019 87.0879 264.23 88.6829 264.653 90.0664C265.093 91.4336 265.703 92.5811 266.484 93.5088C267.266 94.4202 268.177 95.112 269.219 95.584C270.277 96.0397 271.416 96.2676 272.637 96.2676C273.906 96.2676 275.094 96.0804 276.201 95.7061C277.308 95.3317 278.309 94.6237 279.204 93.582L279.912 94.3389C279.424 94.9574 278.838 95.5107 278.154 95.999C277.471 96.4873 276.673 96.8617 275.762 97.1221C274.85 97.3988 273.8 97.5371 272.612 97.5371ZM288.164 76.248V97H286.821V70.584H288.164V76.248ZM287.969 81.4482L287.334 80.0322C287.464 78.7464 287.749 77.5094 288.188 76.3213C288.644 75.1331 289.246 74.0752 289.995 73.1475C290.744 72.2035 291.623 71.4629 292.632 70.9258C293.641 70.3724 294.764 70.0957 296.001 70.0957C297.124 70.0957 298.133 70.2747 299.028 70.6328C299.924 70.9746 300.68 71.5199 301.299 72.2686C301.917 73.001 302.389 73.9613 302.715 75.1494C303.04 76.3376 303.203 77.7699 303.203 79.4463V97H301.934V79.3975C301.934 77.2653 301.673 75.6214 301.152 74.4658C300.632 73.2939 299.915 72.4801 299.004 72.0244C298.092 71.5524 297.043 71.3164 295.854 71.3164C294.471 71.3164 293.283 71.6908 292.29 72.4395C291.313 73.1882 290.508 74.124 289.873 75.2471C289.255 76.3538 288.791 77.4769 288.481 78.6162C288.188 79.7393 288.018 80.6833 287.969 81.4482ZM303.203 79.373L302.324 78.543C302.454 77.4362 302.756 76.3783 303.228 75.3691C303.7 74.3438 304.31 73.4404 305.059 72.6592C305.824 71.8617 306.711 71.235 307.72 70.7793C308.745 70.3236 309.876 70.0957 311.113 70.0957C312.253 70.0957 313.27 70.2829 314.165 70.6572C315.06 71.0153 315.817 71.585 316.436 72.3662C317.054 73.1312 317.526 74.1403 317.852 75.3936C318.177 76.6305 318.34 78.1279 318.34 79.8857V97H317.021V79.8857C317.021 77.6234 316.761 75.8737 316.24 74.6367C315.736 73.3835 315.028 72.5127 314.116 72.0244C313.205 71.5361 312.155 71.3001 310.967 71.3164C309.681 71.3327 308.558 71.6257 307.598 72.1953C306.654 72.765 305.864 73.4811 305.229 74.3438C304.595 75.1901 304.106 76.069 303.765 76.9805C303.439 77.8919 303.252 78.6895 303.203 79.373Z" fill="black"/>
</svg>
