<svg width="157" height="131" viewBox="0 0 157 131" fill="none" xmlns="http://www.w3.org/2000/svg">
<path d="M46 31.2C29.8666 38 15.4666 44.1333 14 44.9333C11.0666 46.6667 7.06662 44.6667 48.9333 62L75.7333 73.2L99.4666 63.3334C112.533 57.8667 123.867 53.3334 124.933 53.3334C126.267 53.3334 126.667 57.6 126.667 73.0667V92.8L122 102.533C119.467 107.867 117.333 112.8 117.333 113.467C117.333 114.133 122.133 114.667 128 114.667C134.4 114.667 138.667 114.133 138.667 113.333C138.667 112.533 136.267 107.2 133.333 101.333C128 90.8 128 90.6667 128 74.8C128 53.3334 128.533 51.0667 134.4 48.5333C137.2 47.4667 138.667 46.1333 137.867 45.4667C136.933 44.5333 89.6 24.4 78 20C76.1333 19.3334 67.0666 22.4 46 31.2ZM103.733 32.9333C119.2 39.3334 132 45.3334 132 46.1333C132 46.9333 119.333 52.8 103.733 59.2L75.6 70.8L47.0666 59.0667C31.4666 52.6667 18.6666 46.8 18.6666 46C18.6666 45.2 26.2666 41.4667 35.7333 37.6C45.0666 33.8667 57.4666 28.6667 63.3333 26.1333C69.2 23.6 74.2666 21.4667 74.6666 21.4667C75.0666 21.3334 88.1333 26.5333 103.733 32.9333ZM131.733 103.333C136.133 112.533 135.867 113.333 127.333 113.333C123.2 113.333 120 112.8 120 112C120 109.733 126.533 97.3334 127.733 97.3334C128.267 97.3334 130.133 100 131.733 103.333Z" fill="black"/>
<path d="M23.4666 72C25.3333 73.8667 72.9333 93.3333 75.7333 93.3333C78.5333 93.3333 109.467 80.4 111.333 78.4C113.333 76.4 108.4 78 90.9333 85.4667L75.7333 91.8667L50.3999 81.3333C25.9999 71.0667 20.6666 69.2 23.4666 72Z" fill="black"/>
<line x1="155" y1="19.9974" x2="155" y2="115.003" stroke="black"/>
</svg>
